<svg xmlns="http://www.w3.org/2000/svg" xml:space="preserve" width="800" height="800" viewBox="0 0 512 512"><path d="M488.22 75.724H23.78c-.669 0-1.327.046-1.982.1L44.095 90.85a19.015 19.015 0 0 1 3.802 1.966l208.104 140.243L464.103 92.816l.005-.003 25.27-17.03c-.386-.019-.767-.059-1.158-.059z"/><path d="M404.811 178.655 266.63 271.777c-3.212 2.166-6.922 3.248-10.631 3.248s-7.419-1.083-10.631-3.248l-44.545-30.019a19.108 19.108 0 0 1-3.859-2.005L0 107.014v305.481c0 13.133 10.647 23.78 23.78 23.78h464.44c13.133 0 23.78-10.647 23.78-23.78V106.42l-107.189 72.235z"/></svg>