<?xml version="1.0" encoding="utf-8"?>
<!-- Generator: Adobe Illustrator 27.5.0, SVG Export Plug-In . SVG Version: 6.00 Build 0)  -->
<svg version="1.1" xmlns="http://www.w3.org/2000/svg" xmlns:xlink="http://www.w3.org/1999/xlink" x="0px" y="0px"
	 viewBox="0 0 500 500" style="enable-background:new 0 0 500 500;" xml:space="preserve">
<g id="Background_Simple">
	<g>
		<path style="fill:#92E3A9;" d="M453.764,174.973c-15.429-33.19-38.506-62.781-60.13-92.372
			c-31.767-43.47-118.707-72.729-188.927-39.29s-63.533,87.776-85.268,131.246c-21.735,43.47-84.432,86.104-93.628,130.41
			C11.649,373.2,22.351,421.1,101.883,449.589c60.352,21.618,125.692-19.22,184.747-29.259c39.172-6.659,82.043-1.572,119.69-17.281
			c46.277-19.31,61.945-78.397,65.613-124.008c1.661-20.653,0.477-41.561-3.815-61.841
			C464.982,202.378,459.997,188.382,453.764,174.973z"/>
		<path style="opacity:0.7;fill:#FFFFFF;" d="M453.764,174.973c-15.429-33.19-38.506-62.781-60.13-92.372
			c-31.767-43.47-118.707-72.729-188.927-39.29s-63.533,87.776-85.268,131.246c-21.735,43.47-84.432,86.104-93.628,130.41
			C11.649,373.2,22.351,421.1,101.883,449.589c60.352,21.618,125.692-19.22,184.747-29.259c39.172-6.659,82.043-1.572,119.69-17.281
			c46.277-19.31,61.945-78.397,65.613-124.008c1.661-20.653,0.477-41.561-3.815-61.841
			C464.982,202.378,459.997,188.382,453.764,174.973z"/>
	</g>
</g>
<g id="Graphics">
	<g style="opacity:0.2;">
		<path style="fill:none;stroke:#000000;stroke-linejoin:round;stroke-miterlimit:10;" d="M436.659,66.912H300.75
			c-4.054,0-7.341-3.287-7.341-7.341V55.84c0-4.054,3.287-7.341,7.341-7.341h135.909c4.054,0,7.341,3.287,7.341,7.341v3.731
			C444,63.626,440.713,66.912,436.659,66.912z"/>
		
			<line style="fill:none;stroke:#000000;stroke-width:0.5;stroke-linejoin:round;stroke-miterlimit:10;" x1="420.785" y1="52.752" x2="420.785" y2="61.358"/>
		<g>
			
				<line style="fill:none;stroke:#000000;stroke-linejoin:round;stroke-miterlimit:10;" x1="414.091" y1="52.828" x2="406.016" y2="60.903"/>
			
				<line style="fill:none;stroke:#000000;stroke-linejoin:round;stroke-miterlimit:10;" x1="406.016" y1="52.828" x2="414.091" y2="60.903"/>
		</g>
		<g>
			<path style="fill:#263238;stroke:#000000;stroke-linejoin:round;stroke-miterlimit:10;" d="M434.884,61.129L434.884,61.129
				c-0.245,0.296-0.686,0.331-0.974,0.077l-3.31-3.011l0.626-0.757l3.552,2.719C435.081,60.394,435.129,60.833,434.884,61.129z"/>
			<path style="fill:none;stroke:#000000;stroke-linejoin:round;stroke-miterlimit:10;" d="M426.384,54.066
				c-1.1,1.329-0.915,3.297,0.414,4.397c1.328,1.1,3.297,0.915,4.397-0.414c1.1-1.328,0.915-3.297-0.414-4.397
				C429.453,52.552,427.484,52.737,426.384,54.066z M430.848,57.762c-0.941,1.137-2.626,1.295-3.763,0.354
				c-1.137-0.941-1.295-2.626-0.354-3.762s2.626-1.295,3.762-0.354C431.63,54.941,431.789,56.625,430.848,57.762z"/>
		</g>
	</g>
	<g>
		<path style="fill:none;stroke:#CCCCCC;stroke-linejoin:round;stroke-miterlimit:10;" d="M154.28,81.79
			c-1.29,1.56-3.61,1.74-5.12,0.41L133,67.5c0.66-0.57,1.29-1.21,1.87-1.91c0.58-0.69,1.09-1.42,1.52-2.18l17.33,13.27
			C155.32,77.92,155.57,80.24,154.28,81.79z"/>
		<path style="fill:none;stroke:#CCCCCC;stroke-linejoin:round;stroke-miterlimit:10;" d="M132.635,42.518
			c1.953,1.582,3.555,3.588,4.583,5.888c2.809,6.285,1.118,14.29-3.991,18.903c-5.11,4.613-13.245,5.479-19.212,2.046
			c-6.206-3.572-9.551-11.484-7.697-18.414c1.708-6.384,7.571-11.471,14.155-12.172C124.813,38.307,129.251,39.778,132.635,42.518z
			 M133.04,64.08c-4.95,5.98-13.81,6.81-19.79,1.86c-5.99-4.95-6.82-13.82-1.87-19.8c4.96-5.98,13.82-6.81,19.8-1.86
			C137.16,49.23,137.99,58.1,133.04,64.08z"/>
	</g>
	<g>
		<path style="fill:none;stroke:#CCCCCC;stroke-linejoin:round;stroke-miterlimit:10;" d="M391.448,444.013
			c-1.111-1.194-1.012-3.066,0.209-4.133l13.436-11.37c0.386,0.587,0.832,1.157,1.33,1.694c0.49,0.536,1.02,1.02,1.582,1.443
			l-12.416,12.454C394.43,445.25,392.551,445.206,391.448,444.013z"/>
		<path style="fill:none;stroke:#CCCCCC;stroke-linejoin:round;stroke-miterlimit:10;" d="M425.088,430.836
			c-1.468,1.395-3.238,2.464-5.184,3.045c-5.315,1.585-11.533-0.604-14.683-5.169c-3.15-4.565-2.99-11.155,0.378-15.562
			c3.503-4.583,10.175-6.427,15.517-4.22c4.921,2.033,8.371,7.249,8.241,12.583C429.271,425.028,427.631,428.42,425.088,430.836z
			 M407.821,428.901c-4.259-4.581-3.994-11.746,0.587-16.004c4.582-4.267,11.755-4,16.013,0.58
			c4.258,4.589,3.992,11.754-0.588,16.012C419.252,433.748,412.079,433.482,407.821,428.901z"/>
	</g>
	<g style="opacity:0.2;">
		
			<line style="fill:none;stroke:#000000;stroke-linejoin:round;stroke-miterlimit:10;" x1="89.742" y1="406.744" x2="66.797" y2="429.689"/>
		
			<line style="fill:none;stroke:#000000;stroke-linejoin:round;stroke-miterlimit:10;" x1="66.797" y1="406.744" x2="89.742" y2="429.689"/>
	</g>
	<g style="opacity:0.2;">
		
			<line style="fill:none;stroke:#000000;stroke-linejoin:round;stroke-miterlimit:10;" x1="472.742" y1="190.744" x2="449.797" y2="213.689"/>
		
			<line style="fill:none;stroke:#000000;stroke-linejoin:round;stroke-miterlimit:10;" x1="449.797" y1="190.744" x2="472.742" y2="213.689"/>
	</g>
	<g style="opacity:0.2;">
		
			<line style="fill:none;stroke:#000000;stroke-linejoin:round;stroke-miterlimit:10;" x1="53.742" y1="59.744" x2="30.797" y2="82.689"/>
		
			<line style="fill:none;stroke:#000000;stroke-linejoin:round;stroke-miterlimit:10;" x1="30.797" y1="59.744" x2="53.742" y2="82.689"/>
	</g>
</g>
<g id="Plants">
	<g>
		<g>
			<path style="fill:#263238;" d="M74.566,204.778c0.059,0.005-0.845-3.812-0.93-4.047c-0.98-2.712-4.468-7.374-7.695-7.26
				c-2.325,0.082-3.828,2.251-3.525,4.462c0.31,2.258,2.41,4.122,4.288,5.175C68.91,204.345,74.562,204.778,74.566,204.778z"/>
			<path style="fill:#263238;" d="M79.948,178.722c-3.001,1.192-4.323,6.862-4.131,9.739c0.017,0.249,0.722,4.107,0.774,4.079
				c0,0,0.049-0.026,0.06-0.033c-0.216,0.893-0.437,1.854-0.657,2.909c-0.391,1.95-0.815,4.158-1.115,6.591
				c-0.306,2.431-0.569,5.081-0.595,7.896c-0.03,2.823,0.083,5.793,0.595,8.839c0.006,0.034,0.016,0.069,0.022,0.104
				c-0.426-0.844-1.698-3.165-1.815-3.332c-1.662-2.356-6.257-5.932-9.339-4.971c-2.22,0.694-3.098,3.182-2.222,5.235
				c0.895,2.096,3.413,3.339,5.502,3.859c2.357,0.586,7.535-0.373,7.947-0.451c0.514,2.896,1.277,5.826,2.213,8.749
				c0.533,1.672,1.122,3.339,1.734,5.003c-0.392-0.718-0.749-1.357-0.808-1.441c-1.662-2.356-6.257-5.932-9.339-4.97
				c-2.221,0.693-3.098,3.182-2.222,5.234c0.895,2.096,3.413,3.339,5.503,3.859c2.12,0.527,6.551-0.202,7.721-0.411
				c0.242,0.636,0.475,1.274,0.719,1.908c1.169,3.047,2.349,6.082,3.415,9.094c0.376,1.062,0.707,2.121,1.043,3.179
				c-0.349-0.637-0.648-1.171-0.703-1.248c-1.661-2.356-6.257-5.932-9.339-4.97c-2.221,0.693-3.098,3.182-2.222,5.234
				c0.895,2.096,3.413,3.339,5.502,3.858c2.023,0.503,6.119-0.133,7.511-0.374c0.31,1.094,0.624,2.19,0.876,3.264
				c0.155,0.738,0.356,1.437,0.471,2.186c0.129,0.74,0.257,1.472,0.384,2.197c0.193,1.406,0.4,2.854,0.554,4.23
				c0.114,0.956,0.205,1.869,0.3,2.789c-0.362-1.061-1.114-3.123-1.197-3.288c-0.854-1.715-2.908-4.151-5.126-5.456
				c-0.125-0.254-0.271-0.496-0.441-0.723c-1.341-1.784-3.936-2.266-5.645-0.688c-2.372,2.19-1.568,7.957-0.355,10.573
				c0.071,0.154,1.035,1.742,1.659,2.733c-0.456-0.527-0.892-1.044-1.367-1.581c-0.933-1.068-1.896-2.106-2.927-3.227
				c-0.517-0.524-1.04-1.053-1.567-1.587c-0.512-0.541-1.121-1.048-1.685-1.579c-1.333-1.204-2.742-2.361-4.188-3.493
				c0.933-0.82,4.205-3.777,5.109-5.742c0.9-1.956,1.502-4.699,0.424-6.707c-1.055-1.966-3.547-2.836-5.475-1.535
				c-2.677,1.806-2.755,7.628-1.953,10.398c0.05,0.173,0.849,2.095,1.308,3.143c-0.875-0.675-1.743-1.352-2.65-2.005
				c-2.617-1.887-5.324-3.714-8.017-5.55c-0.825-0.562-1.64-1.132-2.459-1.699c0.336-0.288,4.301-3.719,5.313-5.92
				c0.9-1.956,1.502-4.699,0.424-6.707c-1.055-1.966-3.547-2.836-5.475-1.535c-2.677,1.806-2.755,7.628-1.954,10.397
				c0.061,0.209,1.214,2.973,1.542,3.662c-1.802-1.25-3.586-2.512-5.294-3.828c-2.36-1.813-4.575-3.721-6.584-5.729
				c0.156-0.134,4.311-3.696,5.348-5.951c0.9-1.956,1.502-4.699,0.424-6.707c-1.055-1.967-3.547-2.836-5.475-1.535
				c-2.677,1.806-2.755,7.628-1.953,10.397c0.063,0.218,1.305,3.191,1.569,3.714c-0.12-0.12-0.256-0.23-0.374-0.351
				c-2.117-2.171-3.896-4.54-5.454-6.839c-0.907-1.334-1.7-2.661-2.442-3.968c0.842-0.584,4.66-3.296,5.817-5.222
				c1.109-1.846,2.009-4.505,1.159-6.62c-0.833-2.07-3.214-3.209-5.274-2.127c-2.858,1.501-3.576,7.279-3.083,10.12
				c0.027,0.154,0.473,1.695,0.814,2.812c-0.326-0.595-0.673-1.204-0.974-1.78c-1.135-2.162-2.041-4.211-2.829-6.033
				c-0.44-1.04-0.816-1.988-1.16-2.879c0.527-1.005,2.601-5.078,2.738-7.28c0.134-2.149-0.293-4.924-2.023-6.409
				c-1.693-1.454-4.331-1.366-5.66,0.542c-1.846,2.649,0.18,8.108,1.927,10.403c0.151,0.198,2.868,3.027,2.896,2.975
				c0,0,0.026-0.049,0.032-0.061c0.313,0.864,0.659,1.787,1.057,2.788c0.75,1.843,1.613,3.917,2.706,6.112
				c1.086,2.196,2.328,4.552,3.86,6.914c1.533,2.371,3.265,4.786,5.373,7.044c0.024,0.025,0.052,0.049,0.076,0.074
				c-0.821-0.469-3.162-1.703-3.353-1.778c-2.686-1.049-8.491-1.496-10.531,1.006c-1.469,1.803-0.829,4.363,1.035,5.592
				c1.903,1.254,4.688,0.902,6.718,0.183c2.289-0.811,6.079-4.468,6.379-4.76c2.027,2.132,4.28,4.155,6.672,6.077
				c1.367,1.1,2.778,2.166,4.206,3.216c-0.723-0.383-1.373-0.719-1.469-0.757c-2.686-1.049-8.492-1.496-10.532,1.007
				c-1.47,1.803-0.828,4.363,1.035,5.591c1.903,1.255,4.689,0.902,6.719,0.183c2.059-0.73,5.353-3.782,6.213-4.602
				c0.552,0.397,1.099,0.8,1.652,1.195c2.656,1.896,5.315,3.777,7.865,5.702c0.9,0.678,1.76,1.378,2.624,2.076
				c-0.643-0.339-1.187-0.62-1.274-0.654c-2.686-1.049-8.491-1.496-10.532,1.007c-1.469,1.803-0.829,4.363,1.035,5.591
				c1.903,1.254,4.688,0.902,6.718,0.183c1.966-0.697,5.03-3.487,6.058-4.456c0.863,0.741,1.729,1.482,2.531,2.24
				c0.536,0.53,1.09,1.002,1.599,1.563c0.516,0.546,1.027,1.086,1.533,1.62c0.936,1.066,1.909,2.16,2.796,3.223
				c0.623,0.734,1.203,1.446,1.789,2.161c-0.887-0.685-2.653-1.99-2.813-2.082c-2.495-1.444-8.166-2.765-10.562-0.6
				c-1.725,1.56-1.48,4.187,0.176,5.683c1.691,1.528,4.498,1.602,6.613,1.199c2.328-0.445,6.473-3.347,6.989-3.712
				c0.966,1.186,1.894,2.349,2.752,3.461c1.13,1.456,2.165,2.834,3.103,4.113c0.613-0.103,1.37-0.237,2.241-0.402
				c-1.135-1.494-2.416-3.137-3.845-4.899c-0.975-1.208-2.043-2.481-3.15-3.776c0.263-0.309,1.753-2.074,2.937-3.896
				c2.297,0.812,7.019,0.689,7.629,0.669c0.151,1.522,0.283,3.004,0.386,4.405c0.183,2.416,0.304,4.628,0.385,6.596
				c0.656-0.149,1.334-0.308,2.029-0.479c-0.123-1.893-0.285-3.991-0.508-6.281c-0.147-1.546-0.335-3.196-0.544-4.888
				c0.596-0.171,5.463-1.596,7.267-3.139c1.636-1.4,3.332-3.637,3.195-5.912c-0.134-2.228-2.032-4.061-4.329-3.687
				c-3.187,0.518-5.697,5.772-6.129,8.622c-0.025,0.168-0.098,2.024-0.125,3.195c-0.089-0.691-0.168-1.363-0.268-2.073
				c-0.189-1.406-0.419-2.802-0.661-4.307c-0.142-0.722-0.286-1.452-0.431-2.188c-0.128-0.733-0.357-1.492-0.534-2.246
				c-0.447-1.74-0.985-3.481-1.566-5.224c1.23-0.169,5.591-0.83,7.429-1.971c1.829-1.136,3.845-3.091,4.054-5.36
				c0.205-2.222-1.394-4.322-3.72-4.301c-3.229,0.029-6.506,4.843-7.365,7.595c-0.054,0.172-0.448,2.216-0.643,3.343
				c-0.357-1.045-0.708-2.089-1.104-3.135c-1.142-3.017-2.392-6.035-3.625-9.052c-0.378-0.924-0.744-1.849-1.114-2.774
				c0.438-0.055,5.639-0.729,7.697-2.007c1.83-1.135,3.845-3.09,4.054-5.36c0.205-2.222-1.394-4.322-3.72-4.301
				c-3.229,0.029-6.506,4.842-7.365,7.594c-0.065,0.207-0.628,3.149-0.734,3.905c-0.813-2.037-1.605-4.074-2.304-6.114
				c-0.968-2.813-1.763-5.627-2.332-8.41c0.204-0.025,5.635-0.704,7.743-2.013c1.83-1.135,3.845-3.09,4.054-5.36
				c0.205-2.222-1.394-4.322-3.719-4.301c-3.229,0.029-6.506,4.842-7.365,7.594c-0.067,0.216-0.672,3.382-0.74,3.964
				c-0.033-0.166-0.086-0.334-0.118-0.499c-0.569-2.979-0.746-5.936-0.776-8.712c-0.021-1.614,0.05-3.157,0.152-4.657
				c1.024-0.023,5.705-0.178,7.732-1.146c1.943-0.928,4.161-2.65,4.618-4.882c0.448-2.187-0.911-4.449-3.225-4.684
				c-3.212-0.325-6.998,4.099-8.154,6.74c-0.063,0.143-0.54,1.675-0.873,2.794c0.057-0.676,0.103-1.375,0.169-2.022
				c0.246-2.429,0.621-4.638,0.968-6.592c0.207-1.11,0.416-2.109,0.621-3.042c0.994-0.547,4.97-2.801,6.299-4.562
				c1.297-1.719,2.472-4.269,1.848-6.461C84.358,179.246,82.11,177.863,79.948,178.722z"/>
			<path style="fill:#263238;" d="M23.282,230.415c2.521-0.185,7.475-2.942,7.478-2.944c0.052-0.029-2.808-2.713-3.008-2.862
				c-2.314-1.721-7.795-3.685-10.424-1.81c-1.894,1.351-1.951,3.989-0.478,5.666C18.354,230.178,21.134,230.573,23.282,230.415z"/>
		</g>
		<g>
			<path style="fill:#263238;" d="M240.136,73.959c0.038,0.055,2.766-3.484,2.913-3.727c1.696-2.813,3.317-9.246,0.901-12.019
				c-1.741-1.998-4.739-1.772-6.478,0.083c-1.776,1.895-1.917,5.09-1.501,7.508C236.46,68.643,240.133,73.955,240.136,73.959z"/>
			<path style="fill:#263238;" d="M267.053,60.021c-3.208-1.8-9.174,1.1-11.582,3.334c-0.208,0.193-3.116,3.586-3.054,3.612
				c0,0,0.058,0.024,0.072,0.03c-0.945,0.45-1.954,0.945-3.045,1.507c-2.006,1.054-4.264,2.262-6.632,3.744
				c-2.37,1.474-4.904,3.143-7.414,5.141c-2.519,2-5.066,4.231-7.393,6.87c-0.026,0.03-0.05,0.064-0.076,0.094
				c0.441-0.983,1.582-3.774,1.645-3.998c0.892-3.161,0.758-9.794-2.305-11.831c-2.207-1.466-5.039-0.457-6.226,1.791
				c-1.212,2.297-0.505,5.416,0.535,7.638c1.173,2.506,5.738,6.399,6.102,6.707c-2.193,2.534-4.238,5.312-6.153,8.237
				c-1.097,1.671-2.149,3.389-3.182,5.124c0.354-0.862,0.664-1.636,0.696-1.749c0.892-3.161,0.758-9.793-2.305-11.83
				c-2.207-1.468-5.039-0.457-6.226,1.791c-1.213,2.296-0.505,5.416,0.535,7.638c1.055,2.254,4.881,5.652,5.905,6.537
				c-0.389,0.67-0.786,1.335-1.173,2.006c-1.857,3.22-3.695,6.443-5.596,9.548c-0.669,1.095-1.369,2.148-2.064,3.205
				c0.313-0.767,0.571-1.414,0.6-1.517c0.893-3.161,0.758-9.794-2.305-11.83c-2.207-1.467-5.039-0.458-6.226,1.791
				c-1.212,2.296-0.505,5.416,0.535,7.638c1.007,2.151,4.51,5.319,5.722,6.377c-0.745,1.06-1.49,2.124-2.26,3.118
				c-0.541,0.667-1.016,1.346-1.596,1.986c-0.562,0.645-1.117,1.284-1.668,1.917c-1.105,1.179-2.238,2.403-3.345,3.526
				c-0.764,0.787-1.506,1.523-2.252,2.267c0.679-1.081,1.963-3.227,2.05-3.419c0.904-1.986,1.586-5.552,1.148-8.452
				c0.135-0.293,0.245-0.595,0.323-0.909c0.616-2.467-0.82-5.109-3.443-5.488c-3.64-0.527-8.166,4.324-9.61,7.274
				c-0.085,0.174-0.799,2.165-1.228,3.429c0.14-0.781,0.284-1.538,0.417-2.344c0.275-1.592,0.503-3.189,0.755-4.906
				c0.093-0.833,0.185-1.675,0.279-2.525c0.112-0.841,0.122-1.744,0.188-2.624c0.109-2.044,0.12-4.121,0.085-6.212
				c1.395,0.237,6.359,1.01,8.747,0.399c2.377-0.608,5.236-2.044,6.239-4.438c0.982-2.345-0.036-5.173-2.571-5.946
				c-3.519-1.072-8.727,3.037-10.601,5.734c-0.117,0.168-1.245,2.254-1.842,3.413c-0.031-1.258-0.056-2.513-0.128-3.784
				c-0.209-3.669-0.535-7.377-0.843-11.077c-0.095-1.133-0.176-2.263-0.262-3.395c0.496,0.09,6.378,1.136,9.051,0.452
				c2.377-0.608,5.236-2.043,6.239-4.438c0.982-2.345-0.036-5.174-2.571-5.946c-3.519-1.073-8.727,3.037-10.602,5.734
				c-0.141,0.203-1.759,3.208-2.134,3.992c-0.187-2.491-0.351-4.976-0.413-7.432c-0.09-3.389,0.009-6.719,0.344-9.937
				c0.23,0.042,6.364,1.162,9.103,0.461c2.377-0.608,5.235-2.043,6.239-4.438c0.983-2.345-0.036-5.173-2.571-5.946
				c-3.519-1.072-8.727,3.037-10.601,5.734c-0.148,0.212-1.887,3.445-2.16,4.054c0.02-0.192,0.02-0.392,0.042-0.583
				c0.401-3.432,1.22-6.706,2.137-9.734c0.53-1.76,1.134-3.413,1.758-5.008c1.121,0.326,6.261,1.757,8.795,1.399
				c2.429-0.344,5.428-1.456,6.689-3.726c1.234-2.223,0.532-5.147-1.903-6.193c-3.379-1.452-9.007,2.06-11.167,4.535
				c-0.117,0.135-1.16,1.635-1.904,2.738c0.293-0.715,0.582-1.459,0.876-2.139c1.098-2.556,2.261-4.828,3.307-6.833
				c0.604-1.135,1.173-2.149,1.715-3.093c1.267-0.255,6.359-1.344,8.406-2.803c1.997-1.424,4.146-3.794,4.219-6.389
				c0.071-2.542-1.899-4.813-4.542-4.619c-3.669,0.268-7.045,5.979-7.821,9.171c-0.067,0.276-0.62,4.71-0.554,4.698
				c0,0,0.062-0.012,0.076-0.015c-0.54,0.897-1.108,1.866-1.708,2.936c-1.092,1.986-2.308,4.239-3.466,6.781
				c-1.164,2.537-2.357,5.326-3.348,8.378c-0.998,3.057-1.891,6.324-2.377,9.809c-0.005,0.039-0.006,0.081-0.012,0.12
				c-0.174-1.063-0.762-4.02-0.833-4.242c-1-3.129-4.771-8.587-8.449-8.596c-2.65-0.006-4.455,2.398-4.205,4.929
				c0.256,2.584,2.567,4.795,4.66,6.075c2.36,1.443,8.316,2.172,8.79,2.228c-0.432,3.324-0.605,6.769-0.588,10.265
				c0.007,1.999,0.077,4.012,0.173,6.029c-0.18-0.914-0.349-1.731-0.385-1.843c-1-3.129-4.771-8.587-8.449-8.596
				c-2.65-0.006-4.455,2.398-4.205,4.928c0.255,2.584,2.567,4.796,4.66,6.076c2.124,1.298,7.188,2.021,8.531,2.195
				c0.045,0.774,0.081,1.547,0.128,2.32c0.228,3.711,0.473,7.413,0.6,11.051c0.046,1.283,0.044,2.546,0.046,3.812
				c-0.161-0.813-0.304-1.495-0.336-1.597c-1-3.129-4.771-8.587-8.449-8.596c-2.65-0.006-4.455,2.398-4.204,4.928
				c0.256,2.584,2.567,4.796,4.66,6.075c2.027,1.239,6.695,1.948,8.29,2.162c-0.037,1.295-0.071,2.593-0.165,3.847
				c-0.083,0.855-0.104,1.684-0.236,2.537c-0.112,0.848-0.224,1.687-0.334,2.519c-0.272,1.593-0.541,3.239-0.845,4.787
				c-0.203,1.078-0.416,2.102-0.628,3.133c-0.03-1.277-0.143-3.775-0.176-3.983c-0.514-3.244-3.414-9.21-7.049-9.776
				c-2.618-0.407-4.767,1.695-4.902,4.234c-0.139,2.593,1.81,5.129,3.686,6.712c2.065,1.741,7.607,3.326,8.301,3.519
				c-0.356,1.706-0.719,3.362-1.087,4.919c-0.478,2.045-0.954,3.949-1.412,5.697c0.531,0.468,1.193,1.042,1.964,1.695
				c0.507-2.077,1.042-4.389,1.575-6.918c0.369-1.73,0.729-3.588,1.081-5.498c0.463,0.011,3.093,0.063,5.555-0.198
				c0.93,2.615,4.428,6.705,4.883,7.23c-1.238,1.226-2.455,2.407-3.62,3.503c-2.006,1.895-3.877,3.59-5.56,5.075
				c0.602,0.474,1.23,0.959,1.88,1.452c1.586-1.467,3.326-3.117,5.192-4.957c1.263-1.24,2.587-2.59,3.935-3.99
				c0.579,0.405,5.333,3.688,7.993,4.177c2.413,0.443,5.61,0.338,7.525-1.416c1.875-1.718,2.135-4.713,0.156-6.476
				c-2.745-2.448-9.196-0.899-12.028,0.765c-0.167,0.098-1.861,1.366-2.917,2.183c0.548-0.575,1.085-1.127,1.642-1.725
				c1.108-1.176,2.179-2.382,3.336-3.676c0.537-0.644,1.079-1.295,1.626-1.952c0.557-0.64,1.064-1.387,1.604-2.085
				c1.218-1.644,2.373-3.37,3.498-5.134c1.032,0.968,4.747,4.351,7.076,5.159c2.318,0.804,5.494,1.184,7.652-0.26
				c2.113-1.414,2.824-4.335,1.136-6.378c-2.343-2.835-8.954-2.281-12.006-1.066c-0.19,0.076-2.282,1.194-3.419,1.83
				c0.668-1.066,1.34-2.127,1.981-3.227c1.85-3.175,3.623-6.447,5.407-9.704c0.546-0.998,1.102-1.985,1.655-2.976
				c0.363,0.348,4.692,4.466,7.3,5.37c2.317,0.804,5.494,1.184,7.652-0.26c2.113-1.414,2.824-4.335,1.135-6.378
				c-2.343-2.836-8.954-2.281-12.006-1.066c-0.23,0.092-3.237,1.705-3.982,2.152c1.219-2.181,2.452-4.344,3.756-6.426
				c1.794-2.876,3.714-5.599,5.768-8.099c0.169,0.163,4.667,4.48,7.339,5.407c2.318,0.804,5.494,1.184,7.652-0.26
				c2.113-1.413,2.824-4.335,1.136-6.378c-2.344-2.836-8.954-2.281-12.005-1.066c-0.24,0.095-3.474,1.833-4.038,2.19
				c0.123-0.148,0.233-0.316,0.357-0.462c2.228-2.641,4.717-4.92,7.152-6.939c1.413-1.176,2.829-2.222,4.23-3.208
				c0.755,0.89,4.252,4.919,6.564,6.019c2.216,1.053,5.331,1.78,7.634,0.582c2.256-1.173,3.283-3.999,1.829-6.215
				c-2.018-3.076-8.649-3.251-11.816-2.378c-0.172,0.047-1.869,0.724-3.099,1.234c0.639-0.435,1.29-0.896,1.911-1.301
				c2.326-1.526,4.549-2.78,6.528-3.874c1.13-0.614,2.165-1.146,3.137-1.634c1.197,0.487,6.045,2.387,8.557,2.3
				c2.452-0.086,5.551-0.877,7.044-3.002C269.754,64.298,269.364,61.317,267.053,60.021z"/>
			<path style="fill:#263238;" d="M180.645,46.982c1.973,2.098,7.968,4.502,7.972,4.504c0.062,0.025,0.385-4.432,0.374-4.715
				c-0.138-3.282-2.334-9.542-5.879-10.522c-2.554-0.706-4.93,1.137-5.356,3.643C177.319,42.452,178.964,45.195,180.645,46.982z"/>
		</g>
		<g>
			<path style="fill:#263238;" d="M470.309,298.2c0.028,0.04,2.038-2.567,2.146-2.746c1.249-2.073,2.444-6.813,0.664-8.856
				c-1.283-1.472-3.492-1.306-4.773,0.061c-1.308,1.396-1.413,3.751-1.106,5.532C467.6,294.283,470.307,298.197,470.309,298.2z"/>
			<path style="fill:#263238;" d="M490.142,287.93c-2.364-1.326-6.76,0.811-8.534,2.457c-0.153,0.142-2.296,2.642-2.25,2.662
				c0,0,0.043,0.018,0.053,0.022c-0.697,0.332-1.44,0.696-2.243,1.11c-1.478,0.776-3.142,1.667-4.886,2.759
				c-1.747,1.086-3.613,2.316-5.463,3.788c-1.856,1.473-3.733,3.118-5.448,5.062c-0.02,0.022-0.037,0.047-0.056,0.069
				c0.325-0.724,1.166-2.78,1.212-2.946c0.657-2.329,0.559-7.216-1.698-8.717c-1.626-1.081-3.713-0.337-4.587,1.32
				c-0.893,1.692-0.372,3.991,0.394,5.628c0.864,1.846,4.228,4.715,4.496,4.942c-1.616,1.867-3.123,3.914-4.534,6.069
				c-0.808,1.232-1.583,2.497-2.345,3.776c0.261-0.635,0.489-1.206,0.513-1.289c0.657-2.329,0.558-7.216-1.698-8.717
				c-1.626-1.081-3.713-0.337-4.587,1.32c-0.893,1.692-0.372,3.991,0.394,5.628c0.777,1.661,3.596,4.164,4.351,4.817
				c-0.287,0.494-0.579,0.983-0.864,1.478c-1.368,2.373-2.723,4.748-4.123,7.035c-0.493,0.807-1.008,1.583-1.521,2.361
				c0.231-0.565,0.421-1.042,0.442-1.118c0.658-2.329,0.559-7.216-1.698-8.717c-1.626-1.081-3.713-0.337-4.587,1.32
				c-0.893,1.692-0.372,3.991,0.394,5.628c0.742,1.585,3.323,3.919,4.216,4.699c-0.549,0.781-1.098,1.565-1.665,2.297
				c-0.399,0.491-0.749,0.992-1.176,1.463c-0.414,0.476-0.823,0.946-1.229,1.412c-0.814,0.869-1.649,1.771-2.465,2.598
				c-0.563,0.58-1.11,1.122-1.66,1.67c0.5-0.797,1.447-2.378,1.511-2.519c0.666-1.464,1.168-4.091,0.846-6.227
				c0.1-0.216,0.18-0.439,0.238-0.67c0.454-1.818-0.604-3.764-2.537-4.043c-2.682-0.388-6.017,3.186-7.081,5.359
				c-0.063,0.128-0.589,1.595-0.905,2.527c0.103-0.576,0.209-1.133,0.307-1.727c0.203-1.173,0.371-2.35,0.556-3.615
				c0.068-0.614,0.137-1.234,0.206-1.861c0.082-0.62,0.09-1.285,0.138-1.933c0.08-1.506,0.089-3.036,0.063-4.578
				c1.028,0.175,4.686,0.744,6.445,0.294c1.751-0.448,3.858-1.506,4.597-3.27c0.724-1.728-0.026-3.812-1.895-4.381
				c-2.593-0.79-6.43,2.238-7.811,4.225c-0.086,0.124-0.917,1.661-1.357,2.515c-0.023-0.927-0.041-1.851-0.094-2.788
				c-0.154-2.703-0.394-5.435-0.622-8.162c-0.07-0.835-0.13-1.668-0.193-2.501c0.365,0.066,4.699,0.837,6.669,0.333
				c1.751-0.448,3.858-1.506,4.597-3.27c0.724-1.728-0.027-3.812-1.894-4.381c-2.593-0.79-6.43,2.238-7.812,4.225
				c-0.104,0.15-1.296,2.364-1.572,2.941c-0.138-1.836-0.259-3.666-0.305-5.476c-0.066-2.497,0.007-4.95,0.253-7.322
				c0.17,0.031,4.689,0.856,6.707,0.34c1.751-0.448,3.857-1.505,4.597-3.27c0.724-1.728-0.026-3.812-1.894-4.381
				c-2.593-0.79-6.43,2.238-7.811,4.225c-0.109,0.156-1.39,2.538-1.591,2.987c0.015-0.141,0.015-0.289,0.031-0.429
				c0.296-2.529,0.899-4.941,1.575-7.172c0.39-1.297,0.836-2.515,1.296-3.69c0.826,0.24,4.613,1.295,6.481,1.031
				c1.79-0.253,3.999-1.073,4.928-2.746c0.909-1.638,0.392-3.792-1.402-4.563c-2.49-1.07-6.637,1.518-8.228,3.341
				c-0.087,0.099-0.855,1.205-1.403,2.018c0.216-0.527,0.429-1.075,0.646-1.576c0.809-1.883,1.666-3.557,2.437-5.035
				c0.445-0.836,0.864-1.584,1.263-2.279c0.934-0.188,4.686-0.99,6.194-2.065c1.472-1.049,3.055-2.795,3.109-4.708
				c0.052-1.873-1.4-3.546-3.347-3.403c-2.703,0.198-5.191,4.405-5.763,6.757c-0.049,0.203-0.457,3.47-0.408,3.461
				c0,0,0.046-0.009,0.056-0.011c-0.398,0.661-0.816,1.375-1.258,2.164c-0.805,1.463-1.701,3.123-2.554,4.996
				c-0.857,1.869-1.736,3.925-2.466,6.173c-0.735,2.253-1.394,4.66-1.751,7.228c-0.004,0.029-0.005,0.06-0.008,0.089
				c-0.128-0.783-0.562-2.962-0.614-3.126c-0.737-2.305-3.515-6.327-6.225-6.334c-1.953-0.004-3.283,1.767-3.098,3.632
				c0.189,1.904,1.891,3.533,3.434,4.476c1.739,1.063,6.127,1.6,6.477,1.642c-0.318,2.449-0.446,4.987-0.433,7.563
				c0.005,1.473,0.057,2.956,0.127,4.443c-0.133-0.674-0.257-1.275-0.283-1.358c-0.737-2.306-3.515-6.327-6.226-6.333
				c-1.953-0.005-3.282,1.767-3.098,3.631c0.188,1.904,1.891,3.534,3.434,4.477c1.565,0.956,5.297,1.49,6.286,1.617
				c0.033,0.57,0.06,1.14,0.095,1.709c0.168,2.734,0.348,5.462,0.442,8.143c0.034,0.945,0.032,1.876,0.034,2.809
				c-0.119-0.599-0.224-1.102-0.248-1.177c-0.737-2.306-3.515-6.327-6.226-6.334c-1.953-0.004-3.283,1.767-3.098,3.631
				c0.188,1.904,1.891,3.534,3.434,4.477c1.494,0.913,4.934,1.436,6.108,1.593c-0.027,0.954-0.052,1.911-0.121,2.835
				c-0.061,0.63-0.077,1.241-0.174,1.869c-0.083,0.625-0.165,1.243-0.246,1.856c-0.2,1.174-0.399,2.387-0.623,3.527
				c-0.149,0.794-0.307,1.549-0.463,2.309c-0.022-0.941-0.105-2.782-0.13-2.935c-0.378-2.39-2.516-6.786-5.194-7.203
				c-1.929-0.3-3.512,1.249-3.612,3.12c-0.102,1.911,1.334,3.78,2.716,4.945c1.521,1.283,5.605,2.451,6.116,2.593
				c-0.263,1.257-0.53,2.477-0.801,3.625c-0.352,1.507-0.703,2.91-1.04,4.198c0.391,0.345,0.879,0.768,1.447,1.249
				c0.374-1.53,0.768-3.233,1.16-5.098c0.272-1.275,0.537-2.643,0.796-4.051c0.341,0.008,2.279,0.046,4.093-0.146
				c0.685,1.927,3.262,4.94,3.598,5.327c-0.913,0.903-1.809,1.773-2.668,2.581c-1.478,1.396-2.857,2.645-4.096,3.739
				c0.444,0.349,0.906,0.707,1.385,1.07c1.169-1.081,2.451-2.296,3.826-3.653c0.93-0.914,1.906-1.909,2.899-2.94
				c0.427,0.298,3.929,2.717,5.89,3.078c1.778,0.327,4.133,0.249,5.544-1.043c1.382-1.266,1.573-3.473,0.115-4.772
				c-2.023-1.804-6.776-0.662-8.863,0.564c-0.123,0.073-1.371,1.006-2.149,1.608c0.403-0.423,0.8-0.83,1.21-1.271
				c0.816-0.867,1.605-1.755,2.458-2.709c0.396-0.474,0.795-0.954,1.198-1.439c0.41-0.471,0.784-1.022,1.182-1.536
				c0.898-1.212,1.749-2.483,2.578-3.783c0.761,0.713,3.498,3.206,5.213,3.801c1.708,0.592,4.048,0.872,5.638-0.192
				c1.557-1.042,2.081-3.194,0.837-4.699c-1.727-2.089-6.598-1.681-8.846-0.785c-0.14,0.056-1.681,0.88-2.519,1.349
				c0.492-0.785,0.987-1.567,1.46-2.377c1.363-2.34,2.67-4.751,3.984-7.15c0.402-0.735,0.812-1.463,1.219-2.193
				c0.267,0.257,3.457,3.29,5.379,3.957c1.708,0.593,4.048,0.872,5.638-0.191c1.557-1.042,2.081-3.194,0.837-4.699
				c-1.727-2.089-6.598-1.681-8.846-0.785c-0.169,0.068-2.385,1.256-2.934,1.586c0.898-1.607,1.807-3.201,2.767-4.735
				c1.322-2.119,2.736-4.125,4.25-5.968c0.125,0.12,3.439,3.301,5.407,3.984c1.708,0.593,4.048,0.873,5.638-0.192
				c1.557-1.042,2.081-3.194,0.837-4.699c-1.727-2.089-6.598-1.681-8.846-0.786c-0.177,0.07-2.56,1.35-2.976,1.613
				c0.09-0.109,0.172-0.233,0.263-0.341c1.641-1.946,3.475-3.625,5.27-5.113c1.041-0.867,2.085-1.637,3.117-2.363
				c0.557,0.656,3.133,3.625,4.836,4.435c1.633,0.776,3.928,1.312,5.625,0.429c1.662-0.864,2.419-2.947,1.348-4.579
				c-1.487-2.266-6.373-2.395-8.706-1.752c-0.127,0.035-1.377,0.533-2.283,0.909c0.471-0.321,0.951-0.66,1.408-0.959
				c1.714-1.124,3.352-2.048,4.81-2.855c0.833-0.452,1.595-0.844,2.311-1.204c0.882,0.359,4.454,1.759,6.305,1.695
				c1.806-0.063,4.09-0.646,5.19-2.212C492.132,291.081,491.845,288.885,490.142,287.93z"/>
			<path style="fill:#263238;" d="M426.475,278.323c1.454,1.546,5.871,3.318,5.874,3.319c0.046,0.018,0.284-3.265,0.275-3.474
				c-0.102-2.418-1.719-7.031-4.332-7.753c-1.882-0.52-3.633,0.837-3.947,2.684C424.024,274.985,425.236,277.006,426.475,278.323z"
				/>
		</g>
		<g>
			<path style="fill:#263238;" d="M295.202,406.341c-0.035-0.051-2.552,3.214-2.687,3.438c-1.564,2.595-3.06,8.529-0.831,11.087
				c1.606,1.843,4.371,1.635,5.975-0.077c1.638-1.748,1.769-4.696,1.385-6.926C298.592,411.245,295.204,406.345,295.202,406.341z"/>
			<path style="fill:#263238;" d="M270.372,419.199c2.959,1.66,8.462-1.015,10.684-3.076c0.192-0.178,2.874-3.308,2.817-3.332
				c0,0-0.054-0.022-0.067-0.027c0.872-0.415,1.802-0.871,2.809-1.39c1.851-0.972,3.933-2.087,6.117-3.454
				c2.186-1.36,4.524-2.899,6.839-4.742c2.324-1.845,4.673-3.903,6.82-6.338c0.024-0.027,0.046-0.059,0.07-0.087
				c-0.407,0.907-1.46,3.481-1.518,3.688c-0.823,2.916-0.699,9.034,2.126,10.913c2.036,1.353,4.648,0.422,5.743-1.652
				c1.118-2.119,0.466-4.996-0.493-7.046c-1.082-2.311-5.293-5.903-5.629-6.187c2.023-2.337,3.91-4.9,5.676-7.599
				c1.012-1.542,1.982-3.126,2.935-4.727c-0.326,0.796-0.612,1.509-0.642,1.614c-0.823,2.916-0.699,9.034,2.126,10.913
				c2.036,1.354,4.648,0.422,5.743-1.652c1.118-2.118,0.466-4.996-0.493-7.046c-0.973-2.08-4.502-5.214-5.447-6.03
				c0.359-0.618,0.725-1.231,1.082-1.85c1.713-2.971,3.409-5.944,5.162-8.808c0.617-1.01,1.263-1.981,1.904-2.956
				c-0.289,0.707-0.527,1.305-0.553,1.4c-0.823,2.916-0.699,9.034,2.126,10.913c2.036,1.354,4.648,0.422,5.743-1.652
				c1.118-2.118,0.466-4.996-0.494-7.046c-0.929-1.985-4.16-4.906-5.278-5.883c0.688-0.978,1.374-1.959,2.085-2.876
				c0.499-0.615,0.937-1.242,1.473-1.832c0.518-0.595,1.031-1.185,1.539-1.768c1.02-1.088,2.065-2.217,3.086-3.253
				c0.705-0.726,1.39-1.405,2.078-2.091c-0.626,0.997-1.811,2.977-1.891,3.154c-0.834,1.833-1.463,5.122-1.059,7.796
				c-0.125,0.27-0.226,0.549-0.298,0.839c-0.568,2.276,0.756,4.712,3.176,5.062c3.358,0.486,7.533-3.988,8.865-6.71
				c0.079-0.16,0.737-1.997,1.133-3.163c-0.129,0.721-0.262,1.419-0.385,2.162c-0.254,1.469-0.464,2.942-0.696,4.526
				c-0.086,0.769-0.171,1.546-0.258,2.329c-0.103,0.776-0.113,1.609-0.173,2.421c-0.1,1.885-0.111,3.801-0.079,5.731
				c-1.287-0.219-5.866-0.932-8.069-0.368c-2.192,0.561-4.83,1.885-5.755,4.094c-0.906,2.163,0.033,4.772,2.372,5.485
				c3.246,0.989,8.05-2.801,9.779-5.29c0.108-0.155,1.148-2.08,1.699-3.148c0.028,1.16,0.051,2.318,0.118,3.49
				c0.193,3.385,0.493,6.805,0.778,10.218c0.088,1.046,0.162,2.088,0.242,3.132c-0.457-0.083-5.883-1.048-8.349-0.417
				c-2.193,0.561-4.83,1.885-5.755,4.094c-0.906,2.163,0.033,4.772,2.372,5.485c3.246,0.989,8.05-2.801,9.78-5.289
				c0.13-0.188,1.623-2.959,1.968-3.682c0.173,2.298,0.324,4.59,0.381,6.855c0.083,3.126-0.008,6.198-0.317,9.167
				c-0.213-0.039-5.871-1.072-8.397-0.425c-2.192,0.561-4.829,1.885-5.755,4.094c-0.907,2.163,0.033,4.772,2.372,5.485
				c3.246,0.989,8.05-2.801,9.779-5.289c0.136-0.195,1.74-3.178,1.993-3.74c-0.019,0.177-0.019,0.362-0.039,0.537
				c-0.37,3.166-1.125,6.186-1.971,8.979c-0.489,1.624-1.046,3.149-1.622,4.62c-1.034-0.3-5.775-1.621-8.113-1.29
				c-2.241,0.317-5.007,1.343-6.17,3.437c-1.138,2.05-0.491,4.748,1.755,5.712c3.117,1.34,8.309-1.901,10.301-4.183
				c0.108-0.124,1.07-1.508,1.756-2.526c-0.27,0.66-0.537,1.346-0.808,1.973c-1.013,2.358-2.086,4.454-3.051,6.303
				c-0.557,1.047-1.082,1.982-1.582,2.853c-1.169,0.235-5.866,1.239-7.755,2.586c-1.842,1.314-3.824,3.499-3.892,5.894
				c-0.065,2.344,1.752,4.44,4.19,4.261c3.384-0.248,6.499-5.515,7.215-8.46c0.062-0.254,0.572-4.345,0.511-4.333
				c0,0-0.057,0.011-0.07,0.014c0.498-0.828,1.022-1.721,1.575-2.709c1.008-1.832,2.129-3.91,3.197-6.255
				c1.073-2.34,2.174-4.913,3.088-7.728c0.92-2.82,1.745-5.834,2.192-9.049c0.005-0.036,0.006-0.075,0.011-0.111
				c0.161,0.981,0.703,3.708,0.769,3.913c0.922,2.886,4.401,7.921,7.794,7.93c2.445,0.005,4.11-2.212,3.879-4.547
				c-0.236-2.384-2.368-4.423-4.299-5.604c-2.177-1.331-7.671-2.003-8.109-2.055c0.398-3.066,0.558-6.244,0.542-9.469
				c-0.007-1.844-0.071-3.701-0.159-5.562c0.166,0.844,0.322,1.597,0.355,1.7c0.922,2.887,4.401,7.921,7.794,7.929
				c2.445,0.006,4.109-2.212,3.879-4.546c-0.236-2.384-2.368-4.424-4.299-5.605c-1.959-1.197-6.631-1.865-7.87-2.025
				c-0.041-0.714-0.074-1.427-0.118-2.14c-0.211-3.423-0.436-6.838-0.553-10.194c-0.043-1.183-0.04-2.349-0.043-3.517
				c0.149,0.75,0.28,1.379,0.31,1.473c0.922,2.886,4.401,7.921,7.794,7.929c2.444,0.006,4.109-2.212,3.878-4.546
				c-0.236-2.384-2.368-4.424-4.299-5.604c-1.87-1.143-6.176-1.797-7.648-1.995c0.034-1.195,0.065-2.392,0.152-3.549
				c0.077-0.788,0.096-1.553,0.217-2.34c0.104-0.782,0.207-1.556,0.308-2.323c0.251-1.47,0.499-2.988,0.78-4.416
				c0.187-0.995,0.384-1.939,0.579-2.89c0.028,1.178,0.132,3.482,0.163,3.674c0.474,2.992,3.149,8.496,6.503,9.018
				c2.415,0.376,4.397-1.564,4.522-3.906c0.128-2.392-1.67-4.732-3.4-6.191c-1.905-1.606-7.017-3.068-7.657-3.246
				c0.329-1.574,0.664-3.101,1.003-4.538c0.441-1.886,0.88-3.643,1.302-5.256c-0.49-0.431-1.1-0.961-1.812-1.563
				c-0.468,1.916-0.961,4.048-1.453,6.382c-0.341,1.596-0.672,3.309-0.997,5.071c-0.427-0.01-2.853-0.058-5.124,0.182
				c-0.858-2.412-4.084-6.185-4.504-6.669c1.142-1.131,2.264-2.22,3.34-3.231c1.851-1.748,3.576-3.312,5.128-4.681
				c-0.556-0.437-1.135-0.885-1.734-1.339c-1.463,1.354-3.069,2.875-4.79,4.573c-1.165,1.144-2.387,2.39-3.63,3.68
				c-0.534-0.374-4.919-3.402-7.373-3.853c-2.226-0.409-5.175-0.312-6.941,1.306c-1.73,1.585-1.969,4.348-0.144,5.974
				c2.532,2.258,8.483,0.829,11.096-0.706c0.154-0.091,1.716-1.26,2.69-2.014c-0.505,0.53-1.001,1.039-1.514,1.591
				c-1.022,1.085-2.01,2.197-3.077,3.391c-0.495,0.594-0.995,1.194-1.5,1.801c-0.513,0.59-0.981,1.279-1.48,1.923
				c-1.124,1.517-2.189,3.109-3.227,4.736c-0.952-0.893-4.379-4.014-6.527-4.759c-2.138-0.741-5.068-1.092-7.059,0.24
				c-1.949,1.304-2.605,3.999-1.048,5.883c2.162,2.616,8.26,2.104,11.075,0.983c0.176-0.07,2.105-1.101,3.154-1.689
				c-0.616,0.983-1.236,1.962-1.827,2.976c-1.706,2.929-3.342,5.947-4.988,8.951c-0.504,0.921-1.017,1.831-1.526,2.745
				c-0.335-0.321-4.328-4.12-6.734-4.954c-2.138-0.742-5.068-1.092-7.059,0.24c-1.949,1.304-2.605,3.999-1.047,5.883
				c2.161,2.616,8.26,2.104,11.075,0.983c0.212-0.085,2.986-1.573,3.673-1.986c-1.124,2.012-2.262,4.007-3.465,5.928
				c-1.655,2.653-3.426,5.165-5.321,7.471c-0.156-0.15-4.306-4.133-6.769-4.988c-2.138-0.742-5.068-1.092-7.059,0.24
				c-1.949,1.304-2.605,3.999-1.048,5.883c2.162,2.616,8.26,2.104,11.074,0.984c0.221-0.088,3.205-1.691,3.725-2.02
				c-0.113,0.137-0.215,0.291-0.329,0.426c-2.055,2.436-4.351,4.538-6.597,6.401c-1.303,1.085-2.61,2.049-3.902,2.959
				c-0.697-0.821-3.923-4.538-6.055-5.552c-2.044-0.972-4.918-1.642-7.043-0.537c-2.081,1.082-3.028,3.689-1.688,5.733
				c1.861,2.837,7.979,2.999,10.9,2.194c0.159-0.044,1.724-0.668,2.858-1.138c-0.59,0.401-1.19,0.827-1.763,1.201
				c-2.145,1.407-4.197,2.564-6.022,3.574c-1.043,0.566-1.997,1.057-2.893,1.507c-1.104-0.449-5.576-2.202-7.894-2.122
				c-2.261,0.079-5.121,0.809-6.498,2.769C267.88,415.253,268.24,418.003,270.372,419.199z"/>
			<path style="fill:#263238;" d="M350.079,431.226c-1.82-1.935-7.35-4.153-7.354-4.155c-0.057-0.023-0.355,4.088-0.345,4.35
				c0.127,3.027,2.153,8.802,5.423,9.706c2.356,0.651,4.548-1.048,4.941-3.361C353.147,435.405,351.63,432.875,350.079,431.226z"/>
		</g>
	</g>
</g>
<g id="Page">
	<g>
		
			<rect x="74.526" y="101.252" style="fill:#FFFFFF;stroke:#263238;stroke-linejoin:round;stroke-miterlimit:10;" width="358.665" height="288.186"/>
		<g>
			<path style="fill:#FFFFFF;stroke:#263238;stroke-linejoin:round;stroke-miterlimit:10;" d="M386.529,352.465h-44.744
				c-2.428,0-4.393-1.965-4.393-4.393v-51.268"/>
			<path style="fill:#FFFFFF;stroke:#263238;stroke-linejoin:round;stroke-miterlimit:10;" d="M414.727,246.294v101.778
				c0,2.428-1.974,4.393-4.402,4.393h-19.403"/>
			<path style="fill:#FFFFFF;stroke:#263238;stroke-linejoin:round;stroke-miterlimit:10;" d="M337.392,293.353v-77.683
				c0-2.428,1.965-4.393,4.393-4.393h68.54c2.428,0,4.402,1.965,4.402,4.393v27.801"/>
			<path style="fill:#FFFFFF;stroke:#263238;stroke-linejoin:round;stroke-miterlimit:10;" d="M414.727,215.669v23.731h-77.335
				v-23.731c0-2.428,1.965-4.393,4.393-4.393h68.54C412.753,211.277,414.727,213.242,414.727,215.669z"/>
		</g>
		
			<rect x="74.526" y="101.252" style="fill:#FFFFFF;stroke:#263238;stroke-linejoin:round;stroke-miterlimit:10;" width="358.665" height="97.582"/>
		<g>
			
				<ellipse transform="matrix(0.9709 -0.2394 0.2394 0.9709 -28.3323 101.7071)" style="fill:#D9D9D9;stroke:#263238;stroke-linejoin:round;stroke-miterlimit:10;" cx="404.444" cy="167.465" rx="8.453" ry="8.453"/>
			<g>
				<g>
					<circle style="fill:#263238;" cx="379.016" cy="162.82" r="1.128"/>
					<path style="fill:#263238;" d="M384.57,162.82c0-0.623-0.505-1.128-1.128-1.128c-0.623,0-1.128,0.505-1.128,1.128
						c0,0.623,0.505,1.128,1.128,1.128C384.065,163.948,384.57,163.443,384.57,162.82z"/>
					<path style="fill:#263238;" d="M388.996,162.82c0-0.623-0.505-1.128-1.128-1.128c-0.623,0-1.128,0.505-1.128,1.128
						c0,0.623,0.505,1.128,1.128,1.128C388.491,163.948,388.996,163.443,388.996,162.82z"/>
				</g>
				<g>
					<path style="fill:#263238;" d="M380.144,167.419c0-0.623-0.505-1.128-1.128-1.128c-0.623,0-1.128,0.505-1.128,1.128
						c0,0.623,0.505,1.128,1.128,1.128C379.639,168.548,380.144,168.043,380.144,167.419z"/>
					<path style="fill:#263238;" d="M384.57,167.419c0-0.623-0.505-1.128-1.128-1.128c-0.623,0-1.128,0.505-1.128,1.128
						c0,0.623,0.505,1.128,1.128,1.128C384.065,168.548,384.57,168.043,384.57,167.419z"/>
					<path style="fill:#263238;" d="M388.996,167.419c0-0.623-0.505-1.128-1.128-1.128c-0.623,0-1.128,0.505-1.128,1.128
						c0,0.623,0.505,1.128,1.128,1.128C388.491,168.548,388.996,168.043,388.996,167.419z"/>
				</g>
				<g>
					<path style="fill:#263238;" d="M380.144,172.019c0-0.623-0.505-1.128-1.128-1.128c-0.623,0-1.128,0.505-1.128,1.128
						c0,0.623,0.505,1.128,1.128,1.128C379.639,173.148,380.144,172.643,380.144,172.019z"/>
					<path style="fill:#263238;" d="M384.57,172.019c0-0.623-0.505-1.128-1.128-1.128c-0.623,0-1.128,0.505-1.128,1.128
						c0,0.623,0.505,1.128,1.128,1.128C384.065,173.148,384.57,172.643,384.57,172.019z"/>
					<path style="fill:#263238;" d="M388.996,172.019c0-0.623-0.505-1.128-1.128-1.128c-0.623,0-1.128,0.505-1.128,1.128
						c0,0.623,0.505,1.128,1.128,1.128C388.491,173.148,388.996,172.643,388.996,172.019z"/>
				</g>
			</g>
		</g>
		<g>
			<path style="fill:#FFFFFF;stroke:#263238;stroke-linejoin:round;stroke-miterlimit:10;" d="M325.88,170.826
				c-1.652,5.138-6.47,8.857-12.157,8.857H197.379"/>
			<path style="fill:#FFFFFF;stroke:#263238;stroke-linejoin:round;stroke-miterlimit:10;" d="M222.968,154.147h90.754
				c7.051,0,12.768,5.716,12.768,12.768"/>
			<path style="fill:#FFFFFF;stroke:#263238;stroke-linejoin:round;stroke-miterlimit:10;" d="M190.982,179.682h-60.568
				c-7.051,0-12.768-5.716-12.768-12.768v0c0-7.051,5.716-12.768,12.768-12.768h88.126"/>
			
				<line style="fill:none;stroke:#263238;stroke-width:0.5;stroke-linejoin:round;stroke-miterlimit:10;" x1="294.294" y1="160.044" x2="294.294" y2="171.98"/>
			<g>
				
					<line style="fill:none;stroke:#263238;stroke-linejoin:round;stroke-miterlimit:10;" x1="285.011" y1="160.149" x2="273.812" y2="171.348"/>
				
					<line style="fill:none;stroke:#263238;stroke-linejoin:round;stroke-miterlimit:10;" x1="273.812" y1="160.149" x2="285.011" y2="171.348"/>
			</g>
			<g>
				<path style="fill:#263238;" d="M130.964,170.191h-1.212l-1.088-7.931h0.861l0.929,6.753l0.884-6.741h0.872l0.872,6.753
					l0.895-6.764h0.77l-1.076,7.931h-1.167l-0.759-5.382L130.964,170.191z"/>
				<path style="fill:#263238;" d="M138.287,165.773v0.793h-1.938v2.821h2.379v0.805h-3.263v-7.931h3.263v0.805h-2.379v2.708
					H138.287z"/>
				<path style="fill:#263238;" d="M141.326,162.26c1.235,0,1.722,0.589,1.722,1.756v0.374c0,0.839-0.238,1.359-0.929,1.575
					c0.77,0.215,1.065,0.827,1.065,1.7v0.668c0,1.19-0.578,1.858-1.813,1.858h-1.824v-7.931H141.326z M141.11,165.625
					c0.703,0,1.065-0.227,1.065-1.054v-0.464c0-0.703-0.238-1.042-0.872-1.042h-0.873v2.561H141.11z M141.371,169.387
					c0.646,0,0.941-0.34,0.941-1.076v-0.702c0-0.884-0.352-1.179-1.11-1.179h-0.771v2.957H141.371z"/>
				<path style="fill:#263238;" d="M149.181,164.164v0.215h-0.839v-0.26c0-0.714-0.272-1.133-0.906-1.133
					c-0.634,0-0.906,0.419-0.906,1.122c0,1.779,2.663,1.949,2.663,4.181c0,1.201-0.578,1.983-1.79,1.983
					c-1.213,0-1.779-0.782-1.779-1.983v-0.453h0.827v0.499c0,0.714,0.295,1.133,0.93,1.133c0.634,0,0.929-0.419,0.929-1.133
					c0-1.768-2.652-1.937-2.652-4.17c0-1.224,0.566-1.983,1.756-1.983C148.614,162.18,149.181,162.962,149.181,164.164z"/>
				<path style="fill:#263238;" d="M152.786,165.773v0.793h-1.938v2.821h2.379v0.805h-3.263v-7.931h3.263v0.805h-2.379v2.708
					H152.786z"/>
				<path style="fill:#263238;" d="M154.941,168.594l-0.306,1.597h-0.816l1.519-7.931h1.28l1.519,7.931h-0.884l-0.306-1.597H154.941
					z M155.054,167.835h1.767l-0.895-4.577L155.054,167.835z"/>
				<path style="fill:#263238;" d="M160.597,162.26c1.246,0,1.768,0.635,1.768,1.813v0.646c0,0.873-0.306,1.417-0.986,1.632
					c0.725,0.215,0.997,0.805,0.997,1.654v1.235c0,0.351,0.011,0.68,0.158,0.952h-0.895c-0.102-0.227-0.147-0.43-0.147-0.963v-1.246
					c0-0.895-0.419-1.178-1.156-1.178h-0.623v3.388h-0.884v-7.931H160.597z M160.371,165.999c0.703,0,1.122-0.227,1.122-1.088
					v-0.759c0-0.714-0.261-1.088-0.918-1.088h-0.861v2.935H160.371z"/>
				<path style="fill:#263238;" d="M166.797,164.175v0.714h-0.838v-0.759c0-0.714-0.283-1.145-0.929-1.145
					c-0.635,0-0.93,0.431-0.93,1.145v4.192c0,0.714,0.295,1.145,0.93,1.145c0.646,0,0.929-0.43,0.929-1.145v-1.031h0.838v0.986
					c0,1.201-0.566,1.994-1.79,1.994c-1.212,0-1.779-0.793-1.779-1.994v-4.102c0-1.201,0.566-1.994,1.779-1.994
					C166.231,162.18,166.797,162.974,166.797,164.175z"/>
				<path style="fill:#263238;" d="M168.488,166.622v3.569h-0.883v-7.931h0.883v3.569h1.949v-3.569h0.884v7.931h-0.884v-3.569
					H168.488z"/>
			</g>
			<g>
				<path style="fill:#263238;stroke:#263238;stroke-linejoin:round;stroke-miterlimit:10;" d="M313.848,171.662L313.848,171.662
					c-0.34,0.41-0.951,0.459-1.351,0.107l-4.59-4.176l0.869-1.049l4.926,3.771C314.121,170.641,314.188,171.251,313.848,171.662z"/>
				<path style="fill:#263238;stroke:#263238;stroke-linejoin:round;stroke-miterlimit:10;" d="M302.059,161.866
					c-1.525,1.842-1.269,4.572,0.574,6.098c1.842,1.526,4.573,1.269,6.098-0.574c1.525-1.842,1.269-4.572-0.574-6.098
					C306.315,159.767,303.585,160.024,302.059,161.866z M308.25,166.992c-1.305,1.576-3.641,1.796-5.218,0.491
					c-1.576-1.305-1.796-3.641-0.491-5.218c1.305-1.576,3.642-1.796,5.218-0.491C309.335,163.079,309.555,165.416,308.25,166.992z"
					/>
			</g>
		</g>
		
			<rect x="422.248" y="101.252" style="fill:#D9D9D9;stroke:#263238;stroke-linejoin:round;stroke-miterlimit:10;" width="10.944" height="288.186"/>
		
			<rect x="422.248" y="158.706" style="fill:#8F8F8F;stroke:#263238;stroke-linejoin:round;stroke-miterlimit:10;" width="10.944" height="28.271"/>
		
			<rect x="74.526" y="101.252" style="fill:#92E3A9;stroke:#263238;stroke-linejoin:round;stroke-miterlimit:10;" width="358.665" height="33.743"/>
		<g>
			
				<rect x="135.886" y="101.252" style="fill:#263238;stroke:#263238;stroke-linejoin:round;stroke-miterlimit:10;" width="297.306" height="11.856"/>
			<g>
				<g>
					
						<line style="fill:none;stroke:#FFFFFF;stroke-linejoin:round;stroke-miterlimit:10;" x1="426.322" y1="104.232" x2="420.046" y2="110.509"/>
					
						<line style="fill:none;stroke:#FFFFFF;stroke-linejoin:round;stroke-miterlimit:10;" x1="420.046" y1="104.232" x2="426.322" y2="110.509"/>
				</g>
				<g>
					
						<rect x="403.466" y="104.758" style="fill:#263238;stroke:#FFFFFF;stroke-linejoin:round;stroke-miterlimit:10;" width="4.618" height="4.618"/>
					
						<rect x="401.249" y="105.866" style="fill:#263238;stroke:#FFFFFF;stroke-linejoin:round;stroke-miterlimit:10;" width="4.618" height="4.618"/>
				</g>
				
					<line style="fill:none;stroke:#FFFFFF;stroke-linejoin:round;stroke-miterlimit:10;" x1="386.843" y1="107.597" x2="378.852" y2="107.597"/>
			</g>
			<g>
				
					<line style="fill:none;stroke:#FFFFFF;stroke-linejoin:round;stroke-miterlimit:10;" x1="142.225" y1="104.007" x2="142.225" y2="111.181"/>
				
					<line style="fill:none;stroke:#FFFFFF;stroke-linejoin:round;stroke-miterlimit:10;" x1="145.812" y1="107.594" x2="138.638" y2="107.594"/>
			</g>
		</g>
		<g>
			
				<line style="fill:#FFFFFF;stroke:#263238;stroke-linejoin:round;stroke-miterlimit:10;" x1="120.047" y1="218.894" x2="193.862" y2="218.894"/>
			
				<line style="fill:#FFFFFF;stroke:#263238;stroke-linejoin:round;stroke-miterlimit:10;" x1="120.047" y1="225.338" x2="213.781" y2="225.338"/>
			
				<line style="fill:#FFFFFF;stroke:#263238;stroke-linejoin:round;stroke-miterlimit:10;" x1="120.047" y1="232.954" x2="313.373" y2="232.954"/>
			
				<line style="fill:#FFFFFF;stroke:#263238;stroke-linejoin:round;stroke-miterlimit:10;" x1="120.047" y1="239.984" x2="313.373" y2="239.984"/>
			
				<line style="fill:#FFFFFF;stroke:#263238;stroke-linejoin:round;stroke-miterlimit:10;" x1="120.047" y1="247.014" x2="313.373" y2="247.014"/>
		</g>
		<g>
			
				<line style="fill:#FFFFFF;stroke:#263238;stroke-linejoin:round;stroke-miterlimit:10;" x1="120.047" y1="263.417" x2="193.862" y2="263.417"/>
			
				<line style="fill:#FFFFFF;stroke:#263238;stroke-linejoin:round;stroke-miterlimit:10;" x1="120.047" y1="269.862" x2="213.781" y2="269.862"/>
			
				<line style="fill:#FFFFFF;stroke:#263238;stroke-linejoin:round;stroke-miterlimit:10;" x1="120.047" y1="277.477" x2="313.373" y2="277.477"/>
			
				<line style="fill:#FFFFFF;stroke:#263238;stroke-linejoin:round;stroke-miterlimit:10;" x1="120.047" y1="284.507" x2="313.373" y2="284.507"/>
			
				<line style="fill:#FFFFFF;stroke:#263238;stroke-linejoin:round;stroke-miterlimit:10;" x1="120.047" y1="291.537" x2="313.373" y2="291.537"/>
		</g>
		<g>
			
				<line style="fill:#FFFFFF;stroke:#263238;stroke-linejoin:round;stroke-miterlimit:10;" x1="120.047" y1="307.941" x2="193.862" y2="307.941"/>
			
				<line style="fill:#FFFFFF;stroke:#263238;stroke-linejoin:round;stroke-miterlimit:10;" x1="120.047" y1="314.385" x2="213.781" y2="314.385"/>
			
				<line style="fill:#FFFFFF;stroke:#263238;stroke-linejoin:round;stroke-miterlimit:10;" x1="120.047" y1="322.001" x2="313.373" y2="322.001"/>
			
				<line style="fill:#FFFFFF;stroke:#263238;stroke-linejoin:round;stroke-miterlimit:10;" x1="120.047" y1="329.031" x2="313.373" y2="329.031"/>
			
				<line style="fill:#FFFFFF;stroke:#263238;stroke-linejoin:round;stroke-miterlimit:10;" x1="120.047" y1="336.061" x2="313.373" y2="336.061"/>
		</g>
		<g>
			
				<line style="fill:#FFFFFF;stroke:#263238;stroke-linejoin:round;stroke-miterlimit:10;" x1="120.047" y1="352.465" x2="193.862" y2="352.465"/>
			
				<line style="fill:#FFFFFF;stroke:#263238;stroke-linejoin:round;stroke-miterlimit:10;" x1="120.047" y1="358.909" x2="213.781" y2="358.909"/>
			
				<line style="fill:#FFFFFF;stroke:#263238;stroke-linejoin:round;stroke-miterlimit:10;" x1="120.047" y1="366.525" x2="313.373" y2="366.525"/>
			
				<line style="fill:#FFFFFF;stroke:#263238;stroke-linejoin:round;stroke-miterlimit:10;" x1="120.047" y1="373.555" x2="313.373" y2="373.555"/>
			
				<line style="fill:#FFFFFF;stroke:#263238;stroke-linejoin:round;stroke-miterlimit:10;" x1="120.047" y1="380.585" x2="313.373" y2="380.585"/>
		</g>
		<g>
			
				<line style="fill:#FFFFFF;stroke:#263238;stroke-linejoin:round;stroke-miterlimit:10;" x1="342.459" y1="247.665" x2="377.217" y2="247.665"/>
			
				<line style="fill:#FFFFFF;stroke:#263238;stroke-linejoin:round;stroke-miterlimit:10;" x1="342.459" y1="252.344" x2="377.217" y2="252.344"/>
			
				<line style="fill:#FFFFFF;stroke:#263238;stroke-linejoin:round;stroke-miterlimit:10;" x1="342.459" y1="257.023" x2="410.304" y2="257.023"/>
			
				<line style="fill:#FFFFFF;stroke:#263238;stroke-linejoin:round;stroke-miterlimit:10;" x1="342.459" y1="261.702" x2="410.304" y2="261.702"/>
			
				<line style="fill:#FFFFFF;stroke:#263238;stroke-linejoin:round;stroke-miterlimit:10;" x1="342.459" y1="266.381" x2="410.304" y2="266.381"/>
			
				<line style="fill:#FFFFFF;stroke:#263238;stroke-linejoin:round;stroke-miterlimit:10;" x1="342.459" y1="271.06" x2="410.304" y2="271.06"/>
			
				<line style="fill:#FFFFFF;stroke:#263238;stroke-linejoin:round;stroke-miterlimit:10;" x1="342.459" y1="275.739" x2="410.304" y2="275.739"/>
			
				<line style="fill:#FFFFFF;stroke:#263238;stroke-linejoin:round;stroke-miterlimit:10;" x1="342.459" y1="280.418" x2="410.304" y2="280.418"/>
			
				<line style="fill:#FFFFFF;stroke:#263238;stroke-linejoin:round;stroke-miterlimit:10;" x1="342.459" y1="285.097" x2="410.304" y2="285.097"/>
			
				<line style="fill:#FFFFFF;stroke:#263238;stroke-linejoin:round;stroke-miterlimit:10;" x1="342.459" y1="289.776" x2="410.304" y2="289.776"/>
		</g>
		<g>
			
				<line style="fill:#FFFFFF;stroke:#263238;stroke-linejoin:round;stroke-miterlimit:10;" x1="342.459" y1="300.805" x2="377.217" y2="300.805"/>
			
				<line style="fill:#FFFFFF;stroke:#263238;stroke-linejoin:round;stroke-miterlimit:10;" x1="342.459" y1="305.484" x2="377.217" y2="305.484"/>
			
				<line style="fill:#FFFFFF;stroke:#263238;stroke-linejoin:round;stroke-miterlimit:10;" x1="342.459" y1="310.163" x2="410.304" y2="310.163"/>
			
				<line style="fill:#FFFFFF;stroke:#263238;stroke-linejoin:round;stroke-miterlimit:10;" x1="342.459" y1="314.842" x2="410.304" y2="314.842"/>
			
				<line style="fill:#FFFFFF;stroke:#263238;stroke-linejoin:round;stroke-miterlimit:10;" x1="342.459" y1="319.521" x2="410.304" y2="319.521"/>
			
				<line style="fill:#FFFFFF;stroke:#263238;stroke-linejoin:round;stroke-miterlimit:10;" x1="342.459" y1="324.2" x2="410.304" y2="324.2"/>
			
				<line style="fill:#FFFFFF;stroke:#263238;stroke-linejoin:round;stroke-miterlimit:10;" x1="342.459" y1="328.879" x2="410.304" y2="328.879"/>
			
				<line style="fill:#FFFFFF;stroke:#263238;stroke-linejoin:round;stroke-miterlimit:10;" x1="342.459" y1="333.558" x2="410.304" y2="333.558"/>
			
				<line style="fill:#FFFFFF;stroke:#263238;stroke-linejoin:round;stroke-miterlimit:10;" x1="342.459" y1="338.237" x2="410.304" y2="338.237"/>
			
				<line style="fill:#FFFFFF;stroke:#263238;stroke-linejoin:round;stroke-miterlimit:10;" x1="342.459" y1="342.916" x2="410.304" y2="342.916"/>
		</g>
	</g>
</g>
<g id="Floor">
	<g>
		
			<line style="fill:none;stroke:#263238;stroke-linejoin:round;stroke-miterlimit:10;" x1="441.284" y1="456.933" x2="453.823" y2="456.933"/>
		
			<line style="fill:none;stroke:#263238;stroke-linejoin:round;stroke-miterlimit:10;" x1="115.258" y1="456.933" x2="432.924" y2="456.933"/>
		
			<line style="fill:none;stroke:#263238;stroke-linejoin:round;stroke-miterlimit:10;" x1="45.038" y1="456.933" x2="106.899" y2="456.933"/>
	</g>
</g>
<g id="Character">
	<g>
		<g>
			<path style="fill:#FFFFFF;stroke:#263238;stroke-linejoin:round;stroke-miterlimit:10;" d="M252.327,437.422
				c0,0,10.707,0.63,13.226,0c2.519-0.63,7.558-4.724,8.188-1.574s-2.834,7.558-5.039,10.077
				c-2.204,2.519-11.022,4.724-13.541,5.983c-2.519,1.26-6.298,4.409-9.447,4.409c-3.149,0-5.038-10.392-5.038-10.392
				s9.447-5.668,11.966-9.762"/>
			<path style="fill:#FFFFFF;stroke:#263238;stroke-linejoin:round;stroke-miterlimit:10;" d="M273.18,434.902
				c-6.421,11.84-16.964,13.853-16.964,13.853l-13.393,4.465c0.78,1.735,1.753,3.097,2.892,3.097c3.149,0,6.928-3.149,9.447-4.409
				c2.519-1.26,11.337-3.464,13.541-5.983c2.204-2.519,5.668-6.928,5.039-10.077C273.647,435.378,273.446,435.085,273.18,434.902z"
				/>
		</g>
		<g>
			<path style="fill:#FFFFFF;stroke:#263238;stroke-linejoin:round;stroke-miterlimit:10;" d="M138.786,429.427
				c0,0-8.198,9.295-8.893,12.043c-0.656,2.601,5.609,6.378,7.229,7.523c4.122,2.913,9.045,5.289,13.816,6.936
				c1.739,0.6,10.286,2.605,9.165-1.622c-0.831-3.134-7.39-6.742-8.225-8.577c-0.835-1.835-2.2-5.429-2.2-5.429L138.786,429.427z"/>
			<path style="fill:#FFFFFF;stroke:#263238;stroke-linejoin:round;stroke-miterlimit:10;" d="M137.121,448.994
				c4.122,2.913,9.045,5.289,13.816,6.936c1.51,0.521,8.148,2.099,9.138-0.261c-3.036-0.166-8.758-1.117-16.125-5.326
				c-7.052-4.03-11.54-7.415-13.887-9.357c-0.075,0.176-0.135,0.341-0.172,0.484C129.236,444.071,135.501,447.849,137.121,448.994z"
				/>
		</g>
		<path style="fill:#263238;stroke:#263238;stroke-linejoin:round;stroke-miterlimit:10;" d="M160.949,312.832l3.464,25.193
			l2.889,53.106c0,0-8.817,8.503-13.856,14.171c-5.038,5.668-16.505,25.436-16.505,25.436s0.91,4.95,6.553,8.326
			c5.643,3.376,8.699,2.85,8.699,2.85l4.068-7.092l1.46-3.204c0,0,32.885-31.671,33.514-35.764
			c0.63-4.094,3.898-48.427,3.898-48.427l25.703,37.72c0,0,3.149,24.878,5.668,30.861c2.519,5.983,12.911,25.507,12.911,25.507
			l1.26,4.409c0,0,4.409,1.575,7.873-1.574c3.464-3.149,5.687-6.803,5.687-6.803l-3.483-4.219l-0.63-2.834
			c0,0-8.503-50.7-10.392-56.683c-1.889-5.983-24.933-57.829-24.933-57.829l-5.039-13.856c0,0-4.724,3.149-19.209,7.558
			C176.064,314.092,160.949,312.832,160.949,312.832z"/>
		<g>
			<g>
				<path style="fill:#92E3A9;stroke:#263238;stroke-linejoin:round;stroke-miterlimit:10;" d="M193.069,318.186
					c10.556-4.815,15.554-9.628,17.884-12.778l-1.194-3.283c0,0-4.724,3.149-19.209,7.558c-12.947,3.94-26.388,3.353-29.099,3.184
					c-0.162,0.024-0.324,0.049-0.487,0.073l0.925,6.727C165.763,321.178,178.227,324.956,193.069,318.186z"/>
				<path style="fill:#92E3A9;stroke:#263238;stroke-linejoin:round;stroke-miterlimit:10;" d="M155.438,239.223l-24.799,18.422
					l28.105,52.668c0,0,0.236,2.834,2.834,4.96c2.598,2.126,19.603,1.653,25.744-0.236c6.141-1.889,15.588-6.613,18.186-8.266
					c2.598-1.653,6.141-5.196,5.196-8.266c-0.945-3.07-2.598-5.668-2.598-5.668l-4.96-14.407c0,0,19.603,1.181,22.201,1.181
					c2.598,0,11.573-22.673,11.573-22.673s-2.598-0.236-3.543-1.889c-0.945-1.653-1.417-3.543-1.417-3.543s-3.543,2.126-8.502,4.251
					c-4.96,2.126-10.156,2.598-12.281,1.653c-2.126-0.945-14.643-12.281-17.477-15.824c-2.834-3.543-3.306-4.96-4.251-4.96
					s-18.422,1.181-20.548,1.181C166.775,237.806,155.438,239.223,155.438,239.223z"/>
				<path style="fill:#92E3A9;stroke:#263238;stroke-linejoin:round;stroke-miterlimit:10;" d="M233.377,255.047
					c-0.82-1.435-1.283-3.045-1.391-3.445l-0.734,0.847c0,0-3.779,2.834-2.834,6.849c0.591,2.513,3.496,3.361,6.05,3.585
					c1.44-3.391,2.452-5.947,2.452-5.947S234.322,256.7,233.377,255.047z"/>
				
					<line style="fill:#FFFFFF;stroke:#263238;stroke-linejoin:round;stroke-miterlimit:10;" x1="193.315" y1="250.19" x2="192.046" y2="246.544"/>
				
					<line style="fill:#FFFFFF;stroke:#263238;stroke-linejoin:round;stroke-miterlimit:10;" x1="203.146" y1="278.429" x2="194.429" y2="253.39"/>
			</g>
		</g>
		<g>
			<path style="fill:#263238;stroke:#263238;stroke-linejoin:round;stroke-miterlimit:10;" d="M155.67,329.527L155.67,329.527
				c-5.787-4.792-6.469-13.419-1.507-19.061l96.844-111.109l14.801,12.256l-91.131,115.84
				C170.06,333.381,161.457,334.319,155.67,329.527z"/>
			<path style="fill:#FFFFFF;stroke:#263238;stroke-linejoin:round;stroke-miterlimit:10;" d="M225.236,228.924l-71.073,81.542
				c-4.962,5.642-4.28,14.269,1.507,19.061c5.787,4.792,14.39,3.853,19.007-2.074l67.228-85.456L225.236,228.924z"/>
			<path style="fill:#263238;stroke:#263238;stroke-linejoin:round;stroke-miterlimit:10;" d="M331.776,116.88
				c-25.987-21.519-64.499-17.896-86.017,8.092c-21.519,25.987-17.896,64.499,8.092,86.017
				c25.987,21.519,64.499,17.896,86.017-8.092C361.386,176.91,357.764,138.399,331.776,116.88z M259.474,204.198
				c-22.237-18.413-25.337-51.366-6.924-73.602c18.413-22.237,51.366-25.337,73.602-6.924c22.237,18.413,25.337,51.366,6.924,73.602
				C314.664,219.511,281.711,222.611,259.474,204.198z"/>
		</g>
		<g>
			<path style="fill:#FFFFFF;stroke:#263238;stroke-linejoin:round;stroke-miterlimit:10;" d="M236.92,256.936l8.975-14.171
				c0,0,3.307-6.377,4.251-7.558c0.945-1.181,4.724-2.598,1.653-2.598c-3.07,0-4.015,1.889-4.015,1.889s-0.006-3.572-0.006-4.989
				s0.006-4.93-1.884-4.694c-1.889,0.236-1.209,2.968-1.568,5.701c-0.157,1.194-1.502,6.581-1.502,6.581l-2.033-7.946
				c-0.203-0.792-0.957-1.362-1.765-1.241c-0.383,0.057-0.689,0.242-0.689,0.685c0,1.181,1.181,6.377,1.181,6.377l-0.729,3.959
				c0,0-0.967-6.254-2.445-7.911c-0.648-0.727-1.767,0.617-1.294,1.798c0.472,1.181,0.69,7.822,0.69,7.822l-0.236,2.834
				c0,0-1.653-2.834-2.598-4.251c-0.945-1.417-2.362-0.708-1.653,1.417s2.362,5.668,2.362,5.668l-1.653,5.196
				C231.96,251.504,229.362,259.534,236.92,256.936z"/>
			
				<line style="fill:#FFFFFF;stroke:#263238;stroke-linejoin:round;stroke-miterlimit:10;" x1="247.785" y1="234.499" x2="246.131" y2="239.223"/>
		</g>
		<g>
			<path style="fill:#92E3A9;stroke:#263238;stroke-linejoin:round;stroke-miterlimit:10;" d="M135.096,254.744
				c0,0-5.638,1.483-5.638,3.845c0,2.362,0,51.487-0.236,53.141c-0.236,1.653,51.487-5.668,51.487-5.668l1.181-8.03l-31.648-6.377
				l-0.236-22.673"/>
			<path style="fill:#92E3A9;stroke:#263238;stroke-linejoin:round;stroke-miterlimit:10;" d="M176.691,296.984l-0.233,9.55
				c0,0,0.058,0.036,0.159,0.099c2.55-0.353,4.092-0.571,4.092-0.571l1.181-8.03L176.691,296.984z"/>
			<path style="fill:#FFFFFF;stroke:#263238;stroke-linejoin:round;stroke-miterlimit:10;" d="M181.89,298.032
				c0,0,6.613-8.502,9.447-8.502c2.834,0,7.085,0.236,8.03,0.236s3.07-0.472,1.889,1.181c-1.181,1.653-5.196,1.417-5.196,1.417
				l5.256,2.867c1.536,0.838,1.911,2.936,0.684,4.183c-0.012,0.012-0.023,0.024-0.035,0.036c-1.181,1.181-4.251,1.181-4.251,1.181
				s-3.307,5.432-5.432,5.904c-2.126,0.472-11.1-1.653-11.1-1.653L181.89,298.032z"/>
		</g>
		<polygon style="fill:#92E3A9;stroke:#263238;stroke-linejoin:round;stroke-miterlimit:10;" points="176.354,254.716 
			176.956,239.242 170.927,237.233 171.932,243.463 		"/>
		<polygon style="fill:#92E3A9;stroke:#263238;stroke-linejoin:round;stroke-miterlimit:10;" points="176.956,239.242 
			181.377,248.286 176.755,247.884 		"/>
		<g>
			<g>
				<path style="fill:#FFFFFF;stroke:#263238;stroke-linejoin:round;stroke-miterlimit:10;" d="M179.774,227.385
					c-2.012,0.605-6.84,12.262-6.84,12.262l3.42,15.068l-5.423-7.633l-1.487-7.347l-12.788-5.312l0.198-8.446
					c0,0-1.483-0.765-3.335-2.116c-1.927-1.408-4.261-3.448-5.706-5.923c-2.815-4.818-6.83-12.253-0.605-20.293
					c6.018-7.756,12.225-8.219,18.961-8.606c0.246-0.009,0.491-0.028,0.737-0.038c0,0,7.841,4.828,8.04,7.237
					c0.198,2.409,1.209,5.829,3.42,7.236c2.211,1.408,5.224-0.208,5.224,2.806c0,3.023-2.419,5.026-2.419,5.026
					s2.012,9.249,3.014,12.262C185.197,226.582,181.777,226.781,179.774,227.385z"/>
				<path style="fill:#263238;" d="M173.81,203.734c0.517,0.789,0.635,1.626,0.264,1.869c-0.371,0.243-1.091-0.199-1.608-0.988
					c-0.517-0.789-0.635-1.626-0.264-1.869C172.573,202.503,173.293,202.945,173.81,203.734z"/>
				<path style="fill:none;stroke:#263238;stroke-linejoin:round;stroke-miterlimit:10;" d="M169.118,203.27
					c0,0,0.201-3.416,3.416-3.416"/>
				<path style="fill:none;stroke:#263238;stroke-linejoin:round;stroke-miterlimit:10;" d="M178.363,215.328
					c0,0-5.426,1.206-6.431-2.01"/>
			</g>
			<path style="fill:#A6A6A6;stroke:#263238;stroke-linejoin:round;stroke-miterlimit:10;" d="M165.102,196.238
				c1.805,1.804-4.827,6.226-5.829,8.238c-1.011,2.012,0.803,5.224,1.001,6.632c0.198,1.408-4.62,5.423-4.62,5.423l-1.814,1.814
				l1.408,5.621c0,0-0.642,0-1.729-0.104c-1.927-1.408-4.261-3.448-5.706-5.923c-2.815-4.818-6.83-12.253-0.605-20.293
				c6.018-7.756,12.225-8.219,18.961-8.606c-1.171,0.794-2.655,1.143-3.486,1.975C161.484,192.213,163.289,194.424,165.102,196.238z
				"/>
			<path style="fill:#FFFFFF;stroke:#263238;stroke-linejoin:round;stroke-miterlimit:10;" d="M158.065,217.338
				c0,0-3.012-4.62-6.632-2.01c-3.62,2.61,3.019,8.643,4.22,9.646c1.201,1.004,5.024-2.813,5.024-2.813s2.01,3.215,6.029,3.818"/>
			<path style="fill:#263238;stroke:#263238;stroke-linejoin:round;stroke-miterlimit:10;" d="M161.683,192.619
				c0,0-8.641,9.646-10.852,14.067c-2.211,4.421-3.818,9.646-3.818,9.646s-4.421-0.402-7.034-3.215
				c-2.613-2.813,0.201-13.866,5.225-19.292c5.024-5.426,10.852-8.239,10.852-8.239s-6.431,0.201-4.019-1.608
				c2.411-1.809,8.44-2.613,12.46-0.603c4.019,2.01,2.411,5.626,2.411,5.626L161.683,192.619z"/>
		</g>
		<polygon style="fill:#92E3A9;stroke:#263238;stroke-linejoin:round;stroke-miterlimit:10;" points="155.453,233.214 
			151.312,242.002 167.511,251.3 170.247,239.136 		"/>
	</g>
</g>
</svg>
